<svg width="39" height="39" viewBox="0 0 39 39" fill="none" xmlns="http://www.w3.org/2000/svg">
<path d="M25.74 19.5L21.45 25.35L19.5 22.62L17.55 25.35L13.26 19.5C5.84998 21.45 5.84998 25.35 5.84998 32.955C5.84998 32.955 11.7 35.1 18.33 35.1H20.67C27.3 34.905 33.15 32.955 33.15 32.955C33.15 25.35 33.15 21.45 25.74 19.5ZM19.5 20.865L16.38 19.5L19.5 22.62L22.62 19.5L19.5 20.865ZM19.5 4.09497C15.795 4.09497 13.65 7.60497 14.235 11.505C14.82 15.405 16.77 18.135 19.5 18.135C22.23 18.135 24.18 15.405 24.765 11.505C25.35 7.40997 23.205 4.09497 19.5 4.09497Z" fill="#242424"/>
</svg>
