<svg width="36" height="36" viewBox="0 0 36 36" fill="none" xmlns="http://www.w3.org/2000/svg">
<path fill-rule="evenodd" clip-rule="evenodd" d="M16.586 2.58558C16.961 2.21063 17.4697 2 18 2C18.5303 2 19.039 2.21063 19.414 2.58558L33.4144 16.5858C33.694 16.8655 33.8845 17.2218 33.9616 17.6097C34.0387 17.9976 33.9991 18.3997 33.8478 18.7651C33.6964 19.1305 33.4402 19.4428 33.1113 19.6626C32.7825 19.8824 32.3959 19.9997 32.0004 19.9998H30.0003V32C30.0003 32.5304 29.7896 33.0391 29.4145 33.4142C29.0394 33.7893 28.5307 34 28.0003 34H24.0002C23.4697 34 22.961 33.7893 22.5859 33.4142C22.2108 33.0391 22.0001 32.5304 22.0001 32V25.9999C22.0001 25.4695 21.7894 24.9607 21.4143 24.5857C21.0392 24.2106 20.5305 23.9999 20.0001 23.9999H15.9999C15.4695 23.9999 14.9608 24.2106 14.5857 24.5857C14.2106 24.9607 13.9999 25.4695 13.9999 25.9999V32C13.9999 32.5304 13.7892 33.0391 13.4141 33.4142C13.039 33.7893 12.5303 34 11.9998 34H7.99973C7.46929 34 6.96057 33.7893 6.58548 33.4142C6.2104 33.0391 5.99968 32.5304 5.99968 32V19.9998H3.99963C3.60412 19.9997 3.21751 19.8824 2.88868 19.6626C2.55985 19.4428 2.30357 19.1305 2.15222 18.7651C2.00088 18.3997 1.96127 17.9976 2.03841 17.6097C2.11555 17.2218 2.30596 16.8655 2.58559 16.5858L16.586 2.58558Z" fill="#242424"/>
</svg>
