<svg width="39" height="39" viewBox="0 0 39 39" fill="none" xmlns="http://www.w3.org/2000/svg">
<path d="M11.1313 27.8688L5.9313 25.025L7.63755 23.3188L11.7 23.8875L18.0375 17.55L5.36255 10.6438L7.63755 8.3688L23.1563 12.35L29.5344 6.05317C29.9948 5.59276 30.5706 5.36255 31.2618 5.36255C31.953 5.36255 32.5282 5.59276 32.9875 6.05317C33.448 6.51359 33.6782 7.08938 33.6782 7.78055C33.6782 8.47172 33.448 9.04697 32.9875 9.5063L26.65 15.8438L30.6313 31.3625L28.3563 33.6376L21.45 20.9625L15.1125 27.3L15.6813 31.3625L13.975 33.0688L11.1313 27.8688Z" fill="#242424"/>
</svg>
