<svg width="30" height="30" viewBox="0 0 30 30" fill="none" xmlns="http://www.w3.org/2000/svg">
<path d="M7.8 17.4H17.4V15H7.8V17.4ZM7.8 13.8H22.2V11.4H7.8V13.8ZM7.8 10.2H22.2V7.8H7.8V10.2ZM3 27V5.4C3 4.74 3.2352 4.1748 3.7056 3.7044C4.176 3.234 4.7408 2.9992 5.4 3H24.6C25.26 3 25.8252 3.2352 26.2956 3.7056C26.766 4.176 27.0008 4.7408 27 5.4V19.8C27 20.46 26.7648 21.0252 26.2944 21.4956C25.824 21.966 25.2592 22.2008 24.6 22.2H7.8L3 27ZM6.78 19.8H24.6V5.4H5.4V21.15L6.78 19.8Z" fill="#242424"/>
</svg>
