<svg width="30" height="30" viewBox="0 0 30 30" fill="none" xmlns="http://www.w3.org/2000/svg">
<path d="M12.5926 9.7037C12.5926 9.32279 12.7055 8.95043 12.9172 8.63372C13.1288 8.317 13.4296 8.07015 13.7815 7.92438C14.1334 7.77861 14.5207 7.74047 14.8943 7.81478C15.2678 7.88909 15.611 8.07252 15.8804 8.34187C16.1497 8.61121 16.3331 8.95438 16.4074 9.32797C16.4818 9.70157 16.4436 10.0888 16.2978 10.4407C16.1521 10.7926 15.9052 11.0934 15.5885 11.3051C15.2718 11.5167 14.8994 11.6296 14.5185 11.6296C14.0077 11.6296 13.5179 11.4267 13.1567 11.0655C12.7955 10.7044 12.5926 10.2145 12.5926 9.7037ZM28 15C28 17.5712 27.2376 20.0846 25.8091 22.2224C24.3806 24.3602 22.3503 26.0265 19.9749 27.0104C17.5994 27.9944 14.9856 28.2518 12.4638 27.7502C9.94208 27.2486 7.6257 26.0105 5.80762 24.1924C3.98953 22.3743 2.7514 20.0579 2.2498 17.5362C1.74819 15.0144 2.00563 12.4006 2.98957 10.0251C3.97351 7.64967 5.63975 5.61935 7.77759 4.19089C9.91543 2.76244 12.4288 2 15 2C18.4466 2.00382 21.751 3.37469 24.1882 5.81183C26.6253 8.24898 27.9962 11.5534 28 15ZM25.1111 15C25.1111 13.0002 24.5181 11.0453 23.4071 9.38257C22.2961 7.7198 20.7169 6.42384 18.8694 5.65855C17.0218 4.89326 14.9888 4.69303 13.0274 5.08317C11.0661 5.47331 9.26443 6.4363 7.85037 7.85036C6.43631 9.26443 5.47332 11.0661 5.08318 13.0274C4.69304 14.9888 4.89327 17.0218 5.65856 18.8694C6.42384 20.7169 7.71981 22.2961 9.38257 23.4071C11.0453 24.5181 13.0002 25.1111 15 25.1111C17.6808 25.1082 20.2509 24.042 22.1465 22.1465C24.042 20.2509 25.1082 17.6807 25.1111 15ZM16.4444 19.4152V15.4815C16.4444 14.843 16.1908 14.2307 15.7393 13.7792C15.2879 13.3277 14.6755 13.0741 14.037 13.0741C13.6959 13.0736 13.3656 13.1938 13.1047 13.4135C12.8437 13.6332 12.6689 13.9381 12.6112 14.2743C12.5536 14.6105 12.6167 14.9563 12.7896 15.2504C12.9624 15.5445 13.2338 15.7679 13.5556 15.8811V19.8148C13.5556 20.4533 13.8092 21.0656 14.2607 21.5171C14.7121 21.9686 15.3245 22.2222 15.963 22.2222C16.3041 22.2227 16.6344 22.1025 16.8953 21.8828C17.1563 21.6631 17.3311 21.3582 17.3888 21.022C17.4464 20.6858 17.3833 20.34 17.2104 20.0459C17.0376 19.7518 16.7662 19.5284 16.4444 19.4152Z" fill="#242424"/>
</svg>
