<svg width="30" height="30" viewBox="0 0 30 30" fill="none" xmlns="http://www.w3.org/2000/svg">
<path d="M20 7.5H23.75C24.0815 7.5 24.3995 7.6317 24.6339 7.86612C24.8683 8.10054 25 8.41848 25 8.75V22.5C25 23.163 24.7366 23.7989 24.2678 24.2678C23.7989 24.7366 23.163 25 22.5 25M22.5 25C21.837 25 21.2011 24.7366 20.7322 24.2678C20.2634 23.7989 20 23.163 20 22.5V6.25C20 5.91848 19.8683 5.60054 19.6339 5.36612C19.3995 5.1317 19.0815 5 18.75 5H6.25C5.91848 5 5.60054 5.1317 5.36612 5.36612C5.1317 5.60054 5 5.91848 5 6.25V21.25C5 22.2446 5.39509 23.1984 6.09835 23.9017C6.80161 24.6049 7.75544 25 8.75 25H22.5ZM10 10H15M10 15H15M10 20H15" stroke="#242424" stroke-width="2" stroke-linecap="round" stroke-linejoin="round"/>
</svg>
