<svg width="30" height="30" viewBox="0 0 30 30" fill="none" xmlns="http://www.w3.org/2000/svg">
<path fill-rule="evenodd" clip-rule="evenodd" d="M19.3636 11.7273C19.3636 12.8846 18.9039 13.9945 18.0855 14.8128C17.2672 15.6312 16.1573 16.0909 15 16.0909C13.8427 16.0909 12.7328 15.6312 11.9144 14.8128C11.0961 13.9945 10.6364 12.8846 10.6364 11.7273C10.6364 10.57 11.0961 9.46007 11.9144 8.64173C12.7328 7.82339 13.8427 7.36365 15 7.36365C16.1573 7.36365 17.2672 7.82339 18.0855 8.64173C18.9039 9.46007 19.3636 10.57 19.3636 11.7273ZM17.1818 11.7273C17.1818 12.3059 16.9519 12.8609 16.5428 13.2701C16.1336 13.6792 15.5786 13.9091 15 13.9091C14.4213 13.9091 13.8664 13.6792 13.4572 13.2701C13.048 12.8609 12.8182 12.3059 12.8182 11.7273C12.8182 11.1486 13.048 10.5937 13.4572 10.1845C13.8664 9.77534 14.4213 9.54547 15 9.54547C15.5786 9.54547 16.1336 9.77534 16.5428 10.1845C16.9519 10.5937 17.1818 11.1486 17.1818 11.7273Z" fill="#242424"/>
<path fill-rule="evenodd" clip-rule="evenodd" d="M15 3C8.37273 3 3 8.37273 3 15C3 21.6273 8.37273 27 15 27C21.6273 27 27 21.6273 27 15C27 8.37273 21.6273 3 15 3ZM5.18182 15C5.18182 17.28 5.95964 19.3789 7.26327 21.0458C8.1788 19.8435 9.35989 18.8692 10.7143 18.1989C12.0687 17.5286 13.5597 17.1805 15.0709 17.1818C16.5625 17.1804 18.0348 17.5195 19.3756 18.1732C20.7163 18.827 21.8901 19.7781 22.8076 20.9542C23.7529 19.7145 24.3893 18.2675 24.6642 16.733C24.9392 15.1985 24.8448 13.6206 24.3889 12.1298C23.933 10.639 23.1286 9.27823 22.0423 8.16004C20.9561 7.04185 19.6192 6.19839 18.1422 5.69946C16.6653 5.20054 15.0908 5.06048 13.5489 5.29088C12.0071 5.52128 10.5423 6.11552 9.27575 7.02442C8.00918 7.93333 6.97725 9.13077 6.26534 10.5177C5.55343 11.9046 5.18202 13.4411 5.18182 15ZM15 24.8182C12.7461 24.8216 10.5603 24.0462 8.81236 22.6233C9.51592 21.6161 10.4524 20.7937 11.542 20.2262C12.6317 19.6587 13.8423 19.3628 15.0709 19.3636C16.2842 19.3627 17.4802 19.6512 18.5596 20.2052C19.6389 20.7592 20.5706 21.5628 21.2771 22.5491C19.5156 24.0182 17.2937 24.8214 15 24.8182Z" fill="#242424"/>
</svg>
